# xmcd CD database file
#
# Track frame offsets:
#	150
#	10571
#	30378
#	44724
#	64396
#	74427
#	94341
#	114080
#
# Disc length: 1590 seconds
#
# Revision: 1
# Processed by: cddbd v1.5.1PL0 Copyright (c) Steve Scherf et al.
# Submitted via: CDex 1.51
#
DISCID=65063408
DTITLE=　　 - ふたりはプリキュア MaxHeart キャラクター・ミニアルバム - 雪城ほのか(キュアホワイト)
DYEAR=2005
DGENRE=Anime
TTITLE0=ドラマ1『素直に書けばいいミポ』
TTITLE1=if・・・
TTITLE2=ドラマ2『素敵な話ミポ』
TTITLE3=いつもとなりで
TTITLE4=ドラマ3『お手紙はできたミポ？』
TTITLE5=if・・・(オリジナルカラオケ)
TTITLE6=いつもとなりで(オリジナルカラオケ)
TTITLE7=メッセージ『ほのかからみなさんへ』
EXTD=YEAR: 2005
EXTT0=
EXTT1=
EXTT2=
EXTT3=
EXTT4=
EXTT5=
EXTT6=
EXTT7=
PLAYORDER=
